<?xml version="1.0" encoding="utf-8"?>
<!-- Generator: Adobe Illustrator 23.0.1, SVG Export Plug-In . SVG Version: 6.00 Build 0)  -->
<svg version="1.1" id="Layer_1" xmlns="http://www.w3.org/2000/svg" xmlns:xlink="http://www.w3.org/1999/xlink" x="0px" y="0px"
	 viewBox="0 0 242.6 39.1" style="enable-background:new 0 0 242.6 39.1;" xml:space="preserve">
<style type="text/css">
	.st0{fill:#FED136;}
</style>
<g>
	<path class="st0" d="M34.8,21.5v1.3c-1.2,1.1-2.1,2-3,2.6c-0.8,0.7-1.6,1.3-2.4,1.8c-0.8,0.5-1.5,0.9-2,1.1c-0.5,0.2-1,0.3-1.4,0.3
		c-0.9,0-1.6-0.3-2.2-1C23.3,26.9,23,26.1,23,25c0-1.2,0.2-2.4,0.7-3.6c0.5-1.2,1.2-2.4,2.1-3.7c0.9-1.3,2.1-2.7,3.4-4.3
		c1-1.2,1.5-1.8,1.5-2c0-0.1,0-0.2-0.1-0.2c-0.1-0.1-0.1-0.1-0.2-0.1c-0.2,0-0.9,0.5-2.1,1.5c-1.2,1-2.7,2.5-4.6,4.5
		c-1.9,2-3.9,4.4-6.1,7.1c-0.1,0.1-0.5,0.6-1.2,1.5c-0.7,0.8-1.1,1.4-1.4,1.7c-0.3,0.3-0.5,0.4-0.7,0.4c-0.3,0-0.6-0.3-0.9-1
		c-0.2-0.7-0.4-1.4-0.4-2.2c0-0.5,0.2-1,0.5-1.5c0.3-0.5,1-1.5,2-3c1-1.4,1.9-2.6,2.6-3.6c0.7-1,1.4-2.2,2.2-3.5
		c0.6-1,1-1.7,1.3-2.3c0.3-0.6,0.4-1.1,0.4-1.5c0-0.4-0.1-0.6-0.3-0.6c-0.5,0-1.3,0.6-2.6,1.9c-1.3,1.2-2.9,3.1-4.7,5.5
		c-1.9,2.4-3.8,5.3-5.9,8.5c-0.7,1.1-1.1,1.8-1.4,2.2C7,27,6.7,27.1,6.3,27.1c-0.4,0-0.8-0.5-1.2-1.4c-0.4-0.9-0.6-1.6-0.6-2.2
		c0-0.2,0.1-0.4,0.2-0.6c1.6-2.1,2.9-4,4-5.5c1-1.5,2-2.9,2.8-4.3c0.8-1.3,1.4-2.5,1.8-3.3c0.4-0.9,0.5-1.6,0.5-2.1
		c0-0.5-0.2-0.8-0.7-0.8c-0.4,0-1.1,0.2-2,0.7C10.2,8.3,9,9,7.6,9.9c-1.4,0.9-2.6,1.5-3.4,2c-0.9,0.5-1.5,0.7-1.9,0.7
		c-0.4,0-0.6-0.2-0.6-0.7c0-0.3,0.1-0.8,0.3-1.8C2,9.2,2.2,8.5,2.4,8.1c0.3-0.5,0.9-1.1,2-1.9C5.4,5.4,6,5,6.1,5
		c0.1,0,0.1,0,0.1,0.1c0,0,0,0.1-0.1,0.2c-0.5,0.4-0.9,0.7-1.1,1C4.7,6.6,4.6,6.9,4.5,7.2c2.2-1.3,4.2-2.4,6-3.1
		c1.8-0.7,3-1.1,3.7-1.1c0.3,0,0.7,0.2,1,0.7c0.3,0.5,0.6,1,0.8,1.6s0.3,1,0.3,1.2c0,0.6-0.2,1.4-0.5,2.2c-0.3,0.8-0.7,1.8-1.3,3
		c-0.5,1.1-1.2,2.5-2,4.2c0.6-0.8,1.2-1.6,1.8-2.3c0.6-0.7,1.1-1.4,1.7-2s1.1-1.3,1.7-2c0.8-0.9,1.7-1.8,2.7-2.6
		c1-0.8,1.9-1.5,2.8-2c0.9-0.5,1.4-0.8,1.7-0.8c0.4,0,0.8,0.2,1.1,0.7c0.3,0.5,0.5,1,0.5,1.5c0,0.4-0.2,1-0.7,2
		c-0.5,1-1.1,2.3-2,3.8c-0.9,1.6-2.1,3.6-3.5,6c1.4-1.5,2.8-3,4.3-4.6c1.5-1.6,2.6-2.7,3.3-3.4s1.3-1.3,1.8-1.6
		c0.7-0.5,1.3-1.1,2-1.7c0.7-0.6,1.2-1.1,1.6-1.4c0.4-0.3,0.7-0.6,1-0.8c0.3-0.2,0.6-0.3,0.8-0.3c0.3,0,0.7,0.4,1.2,1.1
		c0.5,0.7,0.7,1.2,0.7,1.4c0,0.3-0.1,0.6-0.4,0.9c-0.3,0.4-0.9,1-1.8,2c-1.7,1.8-3.1,3.6-4.3,5.4c-1.2,1.8-2.1,3.5-2.8,5
		c-0.6,1.5-0.9,2.7-0.9,3.5c0,0.5,0.1,0.9,0.3,1.2c0.2,0.2,0.5,0.4,0.9,0.4c0.4,0,0.8-0.1,1.1-0.2c0.3-0.1,0.7-0.4,1.1-0.6
		c0.4-0.3,0.8-0.5,1.2-0.8c0.5-0.3,1-0.6,1.5-1c0.5-0.3,0.9-0.6,1.2-0.8C34.5,21.7,34.7,21.5,34.8,21.5z"/>
	<path class="st0" d="M43,21.6c-1.1,1.2-2,2.3-2.9,3.1c-0.8,0.9-1.5,1.5-2.1,1.9c-0.5,0.4-0.9,0.6-1.1,0.6c-0.3,0-0.7-0.3-1.1-0.8
		c-0.4-0.5-0.7-1.2-1-2c-0.3-0.8-0.4-1.6-0.4-2.4c0-1.2,0.6-2.4,1.7-3.6c1.1-1.2,2.4-2.2,3.9-3c1.5-0.8,2.6-1.2,3.3-1.2
		c0.6,0,1.2,0.4,1.8,1.1c0.9-2,1.8-3.7,2.7-5.2s1.6-2.7,2.1-3.4c0.6-0.7,1-1.1,1.2-1.1c0.3,0,0.5,0.1,0.7,0.4
		c0.2,0.3,0.3,0.6,0.3,0.9c0,0.6-0.5,1.7-1.4,3.3c-0.9,1.5-1.8,3-2.7,4.5c-0.9,1.5-1.7,2.9-2.3,4.3c-0.6,1.4-1,2.7-1,3.9
		c0,1.1,0.4,1.6,1.1,1.6c0.4,0,1-0.2,1.6-0.7c0.6-0.5,1.6-1.3,2.8-2.4v1.3c-2.6,3.4-4.7,5.1-6.1,5.1c-0.6,0-1-0.2-1.2-0.7
		c-0.2-0.4-0.4-1.1-0.4-2C42.6,24.2,42.8,22.9,43,21.6z M44.4,17.1c-1.1,0.4-2.4,1-3.8,1.8c-1.5,0.8-2.3,1.4-2.7,1.7
		c-0.3,0.2-0.5,0.7-0.7,1.4c-0.2,0.7-0.3,1.2-0.3,1.5c0,0.2,0.1,0.4,0.2,0.5c0.1,0.1,0.3,0.2,0.5,0.2c0.2,0,0.4-0.1,0.6-0.2
		c0.2-0.1,0.6-0.4,1.1-0.9c0.5-0.4,0.8-0.7,0.9-0.8c0.2-0.2,0.7-0.6,1.4-1.2c0.7-0.6,1.2-1.1,1.6-1.4c0.3-0.3,0.6-0.7,0.8-1.1
		C44.1,18.1,44.3,17.6,44.4,17.1z"/>
	<path class="st0" d="M53.2,27.4c-0.6,0-0.9-0.3-0.9-0.9c0-0.5,0.2-0.9,0.6-1.4c0.4-0.5,0.8-0.9,1.4-1.3c0.5-0.3,1-0.5,1.4-0.5
		c0.4,0,0.6,0.2,0.6,0.7c0,0.4-0.2,0.8-0.5,1.4c-0.3,0.6-0.7,1-1.2,1.5C54,27.2,53.6,27.4,53.2,27.4z M56.9,19.5
		c-0.3,0-0.5-0.1-0.7-0.3C56.1,19,56,18.7,56,18.4c0-0.4,0.2-0.8,0.6-1.4c0.4-0.5,0.8-1,1.3-1.4c0.5-0.4,0.9-0.6,1.3-0.6
		c0.3,0,0.5,0.1,0.6,0.2c0.1,0.2,0.2,0.4,0.2,0.6c0,0.3-0.2,0.8-0.5,1.4c-0.4,0.6-0.8,1.1-1.3,1.6C57.7,19.3,57.3,19.5,56.9,19.5z"
		/>
	<path class="st0" d="M66.5,20.2c2.2-3.6,3.8-6.4,4.9-8.4C72.5,9.7,73,8.4,73,7.9c0-0.2-0.1-0.4-0.2-0.5c-0.1-0.1-0.3-0.2-0.5-0.2
		c-0.4,0-1.4,0.4-3.2,1.1c-1.5,0.6-2.5,1.1-3.2,1.5c-0.7,0.4-1.6,0.9-2.8,1.5s-1.8,1-2,1c-0.3,0-0.5-0.2-0.5-0.7
		c0-0.9,0.6-2.1,1.8-3.6c1.2-1.5,2.8-2.9,4.8-4c0.2-0.2,0.4-0.1,0.4,0c0,0.1-0.1,0.2-0.4,0.4c-0.3,0.2-0.6,0.4-0.8,0.7
		c-0.2,0.2-0.5,0.6-0.8,1c2.6-1.3,4.4-2.2,5.6-2.7c1.2-0.5,2.2-0.8,3.1-0.8C75,2.5,75.6,2.7,76,3c0.4,0.3,0.6,0.8,0.6,1.3
		c0,0.5-0.2,1.3-0.6,2.2c-0.4,1-1,2.2-1.8,3.6c-0.8,1.4-1.6,2.8-2.4,4.1c-0.8,1.4-2.3,3.8-4.4,7.4c2.4-3,4.5-5.6,6.5-7.8
		c2-2.2,3.7-4,5.2-5.4c1.5-1.4,2.7-2.4,3.7-3.1c1-0.7,1.8-1.1,2.2-1.1c0.2,0,0.4,0.2,0.6,0.5C86,5.1,86.2,5.5,86.4,6
		c0.2,0.5,0.3,0.8,0.3,1.1c0,0.8-0.2,1.6-0.6,2.4c-0.4,0.8-1,1.7-1.8,2.9c-2.3,3.1-4,5.5-5,7.3c-1.1,1.8-1.6,3.2-1.6,4.3
		c0,0.8,0.4,1.2,1.3,1.2c0.4,0,0.8-0.1,1.4-0.4c0.5-0.3,1.2-0.7,1.9-1.4c0.7-0.6,1.5-1.3,2.2-2l0,1.4c-1,1.1-2,2-2.8,2.8
		c-0.8,0.8-1.6,1.4-2.3,2c-0.7,0.6-1.4,1-2,1.3c-0.6,0.3-1.1,0.4-1.5,0.4c-0.6,0-1.1-0.2-1.5-0.6c-0.4-0.4-0.6-1-0.6-1.7
		c0-0.7,0.1-1.5,0.4-2.4s0.7-2,1.3-3.2c0.6-1.2,1.3-2.5,2.2-4c0.9-1.4,1.9-2.9,3-4.5c1.1-1.5,1.6-2.5,1.6-3c0-0.3-0.1-0.4-0.4-0.4
		c-1.1,0-3.6,2.2-7.4,6.5c-0.2,0.3-0.7,0.8-1.3,1.5c-0.6,0.7-1.2,1.5-1.8,2.3c-0.6,0.8-1.3,1.7-2.1,2.8c-0.8,1-1.6,2.1-2.4,3.1
		c-0.4,0.5-0.7,0.7-1,0.7c-0.3,0-0.7-0.2-1.2-0.7c-0.5-0.5-0.7-0.8-0.7-1c0-0.3,0.3-0.9,1-1.9C65.5,21.8,66.1,20.9,66.5,20.2z"/>
	<path class="st0" d="M86.4,18.3c1.9-1.7,3.7-2.9,5.4-3.7c1.7-0.8,3.1-1.2,4-1.2c0.3,0,0.5,0.1,0.7,0.3c0.2,0.2,0.4,0.5,0.5,0.7
		c0.1,0.3,0.2,0.5,0.2,0.6c0,0.2-0.1,0.4-0.3,0.5c-0.2,0.1-0.5,0.2-0.9,0.4c0.1,0.2,0.2,0.4,0.3,0.7c0.1,0.3,0.2,0.6,0.3,0.7
		c0.1,0.2,0.1,0.4,0.1,0.5c0,0.3-0.3,0.8-0.9,1.6c-0.6,0.8-1,1.4-1.2,1.8c-0.2,0.4-0.4,0.8-0.4,1.4c0,0.9,0.4,1.4,1.2,1.4
		c0.9,0,2.2-0.8,4-2.4v1.1c-3.1,3.4-5.3,5.1-6.6,5.1c-0.5,0-0.8-0.2-1-0.5c-0.2-0.3-0.3-0.8-0.3-1.4c0-1,0.3-2.4,1-4.2
		c-1.8,2-3.1,3.4-4,4.2c-0.9,0.8-1.6,1.3-2.1,1.3c-0.3,0-0.6-0.2-1-0.7c-0.4-0.5-0.8-1.1-1.1-1.8c-0.3-0.7-0.5-1.5-0.5-2.3
		c0-0.6,0.1-1.1,0.2-1.4c0.1-0.4,0.3-0.8,0.6-1.2C85.2,19.4,85.7,18.9,86.4,18.3z M95.1,16.2c-3.2,1.5-5.4,2.7-6.8,3.7
		c-1.3,1-2,2.1-2,3.1c0,0.4,0.1,0.7,0.2,1c0.1,0.2,0.3,0.4,0.5,0.4c0.1,0,0.4-0.1,0.7-0.3c1.3-0.8,2.5-1.7,3.5-3
		C92.4,20,93.7,18.3,95.1,16.2z"/>
	<path class="st0" d="M99.2,23.1v-1.4c0.7-0.7,1.4-1.7,2.1-3c-0.7-0.1-1-0.4-1-0.8c0-0.4,0.2-0.9,0.7-1.5c0.5-0.6,1-1.1,1.6-1.6
		c0.6-0.5,1.1-0.7,1.5-0.7c0.4,0,0.6,0.2,0.6,0.5c0,0.1,0,0.2-0.1,0.3c-0.1,0.1-0.1,0.2-0.1,0.3c0,0.1,0.1,0.2,0.3,0.2
		c0.6,0,1.4-0.1,2.3-0.4c0.9-0.2,1.6-0.4,1.9-0.4c0.3,0,0.5,0.3,0.6,0.8c0.3,1.4,0.4,2.2,0.4,2.4c0,0.2-0.1,0.3-0.2,0.5
		c-0.2,0.2-0.6,0.5-1.3,0.9c-0.7,0.5-1.4,0.9-1.9,1.3c-0.6,0.4-1.4,1-2.3,1.8c0.7,0.3,1.1,0.6,1.4,1c0.3,0.4,0.6,1,0.8,1.7l4.6-3.6
		v1.2l-4.6,3.7c-0.1,1.2-0.5,2.4-1.2,3.6c-0.7,1.2-1.5,2.3-2.4,3.3c-0.9,1-1.8,1.8-2.7,2.4c-0.9,0.6-1.6,0.9-2,0.9
		c-0.4,0-0.7-0.1-0.8-0.4c-0.2-0.3-0.2-0.6-0.2-1.1c0-0.7,0.2-1.4,0.5-2c0.3-0.6,0.8-1.3,1.4-1.9c0.6-0.6,1.3-1.3,2.1-2
		c0.8-0.7,1.9-1.5,3.3-2.4c-0.1-0.9-0.4-1.4-0.7-1.6c-0.3-0.2-0.8-0.4-1.5-0.6c-0.7-0.2-1-0.5-1-1c0-0.5,2.3-2.3,6.9-5.5
		c-0.7,0.1-1.6,0.3-2.6,0.5c-1,0.2-1.9,0.3-2.8,0.4c-0.6,1-1.2,1.9-1.8,2.6C100.1,22.2,99.6,22.7,99.2,23.1z M103.9,28.4
		c-0.9,0.6-1.7,1.3-2.5,2.1c-0.8,0.8-1.5,1.5-2.1,2.2c-0.6,0.7-0.9,1.1-0.9,1.2c0,0.3,0.1,0.4,0.4,0.4c0.4,0,1-0.2,1.7-0.7
		c0.7-0.5,1.4-1.2,2-2.1C103.1,30.5,103.6,29.5,103.9,28.4z"/>
	<path class="st0" d="M119.1,24c1.7-1.5,3.1-2.8,4.3-3.9c1.2-1.1,2.2-2,2.8-2.6c0.7-0.6,1.3-1.2,1.8-1.6c0.5-0.4,0.9-0.7,1-0.7
		c0.3,0,0.5,0.3,0.8,0.9c0.3,0.6,0.4,1.1,0.4,1.4c0,0.2-0.4,0.8-1.2,1.6c-0.8,0.9-1.4,1.5-1.7,2.1c-0.4,0.5-0.6,1-0.6,1.6
		c0,0.3,0.1,0.6,0.3,0.8c0.2,0.2,0.5,0.3,0.8,0.3c0.4,0,0.8-0.2,1.3-0.5c0.5-0.4,1.3-1,2.3-2v1.3c-1.1,1-2,1.9-2.9,2.6
		c-0.9,0.7-1.6,1.3-2.3,1.6c-0.6,0.4-1.2,0.5-1.6,0.5c-0.4,0-0.7-0.1-1-0.4c-0.3-0.3-0.4-0.6-0.4-1.1c0-0.4,0.1-0.8,0.2-1.3
		c0.1-0.4,0.4-0.9,0.7-1.5c0.3-0.6,0.7-1.3,1.2-2.1s1-1.6,1.4-2.3c-1.2,1-2.3,2-3.3,2.9c-1,0.9-1.7,1.8-2.4,2.5
		c-0.6,0.7-1.1,1.3-1.4,1.7c-0.7,0.8-1.3,1.1-1.9,1.1c-0.6,0-1-0.5-1-1.4c0-0.4,0.2-1,0.7-2c0.5-0.9,1.2-2.1,2-3.6
		c0.1-0.1,0.1-0.2,0.1-0.5c0-0.2-0.1-0.4-0.4-0.4c-0.3,0-0.7,0.3-1.2,0.8c-0.5,0.5-1.5,1.6-2.9,3.2c-0.4,0.5-0.9,1-1.4,1.8
		c-0.5,0.7-0.9,1.2-1.1,1.5s-0.4,0.4-0.7,0.4c-0.4,0-0.8-0.4-1.2-1.2c-0.4-0.8-0.6-1.7-0.6-2.7c0-0.8,0.1-1.4,0.4-2s0.6-1.2,1.2-2
		c0.8-1.2,1.5-2,2-2.5c0.5-0.5,1.1-0.8,1.6-0.8c0.4,0,0.7,0.1,0.9,0.2c0.2,0.1,0.4,0.3,0.4,0.6c0,0.3-0.2,0.7-0.7,1.3
		c-0.4,0.6-1,1.2-1.7,1.8c-0.4,0.4-0.7,0.8-1,1.3c-0.3,0.5-0.5,0.9-0.5,1.1c0,0.3,0.1,0.5,0.4,0.5c0.2,0,0.7-0.4,1.6-1.3
		c0.8-0.9,1.8-1.8,2.8-2.8c1-1,1.9-1.8,2.8-2.5c0.9-0.7,1.6-1,2.2-1c0.4,0,0.7,0.1,0.9,0.4s0.4,0.6,0.4,1c0,0.3-0.2,0.8-0.5,1.5
		c-0.4,0.7-0.9,1.6-1.6,2.6C121.1,21.3,120.2,22.6,119.1,24z"/>
	<path class="st0" d="M140,20.3c-1.8,2.3-3.1,4-4,5c-0.9,1-1.7,1.5-2.3,1.5c-0.5,0-0.9-0.2-1.3-0.6s-0.7-0.9-0.9-1.6
		c-0.2-0.7-0.3-1.3-0.3-2.1c0-0.5,0-0.9,0.1-1.3c0.1-0.4,0.3-0.8,0.5-1.3c0.3-0.5,0.6-1,1-1.5c0.4-0.5,0.9-1.2,1.5-1.9
		c0.4-0.4,0.7-0.8,0.9-1.1c0.2-0.3,0.5-0.5,0.7-0.6c0.2-0.1,0.6-0.2,1.2-0.2c0.4,0,0.8,0.1,1.1,0.2c0.4,0.1,0.5,0.2,0.5,0.3
		c0,0.2-0.2,0.6-0.5,1.2c-0.4,0.6-0.9,1.3-1.7,2.1c-0.8,0.8-1.7,1.6-2.8,2.4c-0.2,0.7-0.3,1.3-0.3,1.6c0,0.5,0.2,0.8,0.6,0.8
		c0.1,0,0.4-0.1,0.7-0.4c0.3-0.2,0.9-0.7,1.7-1.4c0.8-0.7,1.5-1.3,2.2-1.9c0.5-0.4,1-1,1.7-1.9c0.6-0.8,1.1-1.4,1.5-1.9
		c0.9-1,1.5-1.6,1.8-1.9c0.3-0.3,0.6-0.4,1-0.4c0.3,0,0.5,0.1,0.6,0.3c0.1,0.2,0.2,0.6,0.2,1.1c0,0.3,0,0.5-0.1,0.6
		c0,0.2-0.1,0.4-0.3,0.6c-0.2,0.2-0.5,0.7-0.9,1.4c-0.5,0.7-1,1.5-1.6,2.4c-0.3,0.5-0.6,1-0.9,1.6c-0.3,0.6-0.4,1-0.4,1.3
		c0,0.6,0.2,1,0.7,1c0.4,0,0.9-0.2,1.4-0.5c0.5-0.3,1.4-1,2.5-1.8v1.2c-1.4,1.3-2.5,2.3-3.2,2.9c-0.7,0.6-1.3,1-1.8,1.4
		c-0.5,0.3-1,0.5-1.4,0.5c-1,0-1.5-0.6-1.5-1.8c0-0.5,0.2-1.1,0.5-1.9C138.8,22.9,139.3,21.8,140,20.3z"/>
	<path class="st0" d="M154.5,21.3v1.4c-2.5,3.4-4.6,5.1-6.2,5.1c-0.9,0-1.5-0.5-2-1.4c-0.5-0.9-0.7-2.2-0.7-3.7
		c0-1.2,0.3-2.7,0.9-4.4c0.6-1.7,1.4-3.4,2.3-5.2c1-1.8,2-3.3,3.1-4.6c1.1-1.3,2-2.2,2.9-2.8c0.4-0.2,0.7-0.3,0.9-0.3
		c0.3,0,0.4,0.1,0.5,0.3c0.1,0.2,0.1,0.6,0.1,1.2c0,1.7-0.7,3.8-2.1,6.2c-1.4,2.5-3.3,5-5.8,7.6c-0.1,0.6-0.2,1.1-0.2,1.5
		c0,0.8,0.2,1.4,0.5,1.9s0.8,0.7,1.4,0.7c0.3,0,0.6-0.1,1-0.4c0.4-0.2,0.7-0.5,1.1-0.9C152.6,23.1,153.4,22.4,154.5,21.3z M149.1,18
		c0.6-0.6,1.2-1.3,1.8-2.1c0.6-0.8,1.1-1.6,1.7-2.5c0.5-0.9,0.9-1.7,1.2-2.4c0.3-0.7,0.4-1.3,0.4-1.6c0-0.3-0.1-0.4-0.3-0.4
		c-0.1,0-0.2,0.1-0.4,0.2c-0.7,0.6-1.6,1.8-2.5,3.6C150.1,14.4,149.5,16.2,149.1,18z"/>
	<path class="st0" d="M183.8,22c-0.3-0.6-0.8-1.1-1.4-1.5c-0.6-0.5-1.3-0.8-2.1-1.1c-0.8-0.3-1.6-0.5-2.4-0.6
		c-2.5-0.4-4.8-1.2-6.9-2.4c-0.2-0.1-0.4-0.3-0.6-0.6c-0.2-0.3-0.3-0.6-0.3-0.9c0-1.1,0.2-2.1,0.5-3.2c0.4-1.1,0.8-1.9,1.4-2.5
		c0.9-1,2.5-1.9,4.9-2.7c2.3-0.8,5-1.1,7.9-1.1c1.8,0,3.1,0.1,4.1,0.4c1,0.3,1.4,0.7,1.4,1.2c0,0.9-0.1,1.6-0.4,2.1
		c-0.3,0.5-0.5,0.8-0.8,1s-0.8,0.4-1.5,0.7c-0.8,0.3-1.4,0.5-2,0.8c-0.6,0.3-1.1,0.6-1.5,0.8c-0.4,0.3-0.7,0.4-0.7,0.4
		c-0.1,0-0.2,0-0.2-0.1c0-0.2,0.2-0.5,0.6-0.9c0.4-0.4,1-0.8,1.6-1.1c0.7-0.4,1-0.6,1-0.7c0-0.2-0.4-0.2-1.1-0.2
		c-2.3,0-4.3,0.2-6.3,0.6c-1.9,0.4-3.4,0.9-4.5,1.6c-1.1,0.7-1.7,1.3-1.7,2c0,0.4,0.2,0.7,0.7,0.9c0.5,0.2,1.5,0.5,3,0.9
		c1.6,0.4,3,0.9,4.2,1.4c1.8,0.8,3.1,1.5,3.9,2.4c0.9,0.8,1.3,1.7,1.3,2.7c0,0.7-0.2,1.4-0.5,2.1s-0.8,1.3-1.5,1.9
		c-0.6,0.6-1.4,1.1-2.2,1.4c-0.7,0.3-1.6,0.6-2.7,0.9c-1.1,0.3-2.3,0.5-3.5,0.6s-2.5,0.2-3.6,0.2c-2.1,0-3.8-0.2-5.1-0.6
		c-1.3-0.4-1.9-1-1.9-1.8c0-0.4,0.2-0.9,0.7-1.7s1-1.3,1.6-1.6c0.5-0.2,1-0.3,1.5-0.4c0.5,0,0.7,0,0.7,0.2c0,0,0,0.1-0.1,0.1
		c0,0-0.1,0.1-0.1,0.1c0,0-0.1,0-0.1,0.1c-0.2,0.1-0.4,0.2-0.6,0.2c-0.2,0.1-0.3,0.1-0.4,0.2c-0.1,0.1-0.1,0.1-0.1,0.2
		c0,0.3,1.3,0.4,3.8,0.4c2.2,0,4-0.1,5.4-0.2c1.4-0.2,2.6-0.4,3.7-0.9C182,23.3,182.9,22.7,183.8,22z"/>
	<path class="st0" d="M191.2,18.3c1.9-1.7,3.7-2.9,5.4-3.7c1.7-0.8,3.1-1.2,4-1.2c0.3,0,0.5,0.1,0.7,0.3c0.2,0.2,0.4,0.5,0.5,0.7
		c0.1,0.3,0.2,0.5,0.2,0.6c0,0.2-0.1,0.4-0.3,0.5c-0.2,0.1-0.5,0.2-0.9,0.4c0.1,0.2,0.2,0.4,0.3,0.7c0.1,0.3,0.2,0.6,0.3,0.7
		c0.1,0.2,0.1,0.4,0.1,0.5c0,0.3-0.3,0.8-0.9,1.6c-0.6,0.8-1,1.4-1.2,1.8c-0.2,0.4-0.4,0.8-0.4,1.4c0,0.9,0.4,1.4,1.2,1.4
		c0.9,0,2.2-0.8,4-2.4v1.1c-3.1,3.4-5.3,5.1-6.6,5.1c-0.5,0-0.8-0.2-1-0.5c-0.2-0.3-0.3-0.8-0.3-1.4c0-1,0.3-2.4,1-4.2
		c-1.8,2-3.1,3.4-4,4.2c-0.9,0.8-1.6,1.3-2.1,1.3c-0.3,0-0.6-0.2-1-0.7c-0.4-0.5-0.8-1.1-1.1-1.8c-0.3-0.7-0.5-1.5-0.5-2.3
		c0-0.6,0.1-1.1,0.2-1.4c0.1-0.4,0.3-0.8,0.6-1.2C190,19.4,190.5,18.9,191.2,18.3z M200,16.2c-3.2,1.5-5.4,2.7-6.8,3.7
		c-1.3,1-2,2.1-2,3.1c0,0.4,0.1,0.7,0.2,1c0.1,0.2,0.3,0.4,0.5,0.4c0.1,0,0.4-0.1,0.7-0.3c1.3-0.8,2.4-1.7,3.5-3
		C197.2,20,198.5,18.3,200,16.2z"/>
	<path class="st0" d="M218.1,21.5v1.2c-1.4,1.6-2.5,2.8-3.4,3.6s-1.7,1.2-2.3,1.2c-0.6,0-1.1-0.2-1.6-0.5c-0.5-0.4-0.9-0.8-1.3-1.5
		c-0.4-0.6-0.8-1.5-1.4-2.6c-0.6,0.8-1.2,1.5-1.7,2.1s-0.8,1.1-1,1.3c-0.2,0.2-0.4,0.3-0.5,0.3c-0.3,0-0.6-0.2-0.7-0.6
		c-0.1-0.4-0.2-1-0.2-1.8c0-1.1,0.1-2.2,0.4-3.2c0.3-1,0.6-2,1.1-3c0.5-1,1.1-2,1.9-3.1s1.6-2.3,2.6-3.5c1.3-1.7,2.5-3.1,3.4-4.1
		c1-1.1,1.8-1.9,2.5-2.4c0.7-0.5,1.3-0.8,1.8-0.8c0.6,0,0.9,0.3,0.9,0.8c0,0.5-1.1,2.1-3.2,4.9c-2.2,2.8-5.3,6.6-9.4,11.5v1.6
		c2.8-3,5-5.2,6.7-6.6c1.7-1.4,3-2.2,3.9-2.2c0.4,0,0.7,0.2,0.9,0.7c0.2,0.4,0.3,1,0.3,1.5c0,1.2-0.5,2.3-1.5,3.3
		c-1,1-2.6,2.2-4.7,3.5c0.4,0.5,0.7,0.9,1,1.2c0.3,0.2,0.6,0.4,1.1,0.4c0.4,0,0.8-0.1,1.2-0.4c0.4-0.3,0.9-0.6,1.3-1
		C216.4,23,217.1,22.4,218.1,21.5z M210.8,22.5c0.5-0.3,1-0.8,1.7-1.4c0.7-0.6,1.3-1.3,1.8-2c0.5-0.7,0.7-1.3,0.7-1.7
		c0-0.2-0.1-0.3-0.3-0.3c-0.5,0-1.3,0.4-2.4,1.3c-1.1,0.9-2.2,2-3.3,3.4C209.6,21.8,210.2,22,210.8,22.5z"/>
	<path class="st0" d="M226.7,21.5v1.3c-1.2,1.5-2.3,2.7-3.3,3.4c-1,0.8-1.9,1.2-2.6,1.2c-1,0-1.7-0.5-2.2-1.6
		c-0.5-1-0.7-2.2-0.7-3.4c0-0.5,0-0.9,0.1-1.4c0.1-0.4,0.2-0.8,0.3-1.1c0.1-0.3,0.4-0.7,0.7-1.3c1.7-2.7,3.3-4,4.8-4
		c0.7,0,1.1,0.3,1.1,0.9c0,0.4-0.2,1-0.7,1.8c-0.5,0.8-0.9,1.4-1.3,1.8c-1.1,1-1.8,1.7-2.1,2.1c-0.3,0.4-0.5,0.9-0.5,1.4
		c0,0.4,0.2,0.8,0.5,1.1c0.3,0.3,0.8,0.4,1.3,0.4c0.6,0,1.2-0.2,1.9-0.6C224.7,23.1,225.6,22.5,226.7,21.5z M225.4,13.4
		c-0.3,0-0.6-0.1-0.9-0.3c-0.3-0.2-0.4-0.5-0.4-0.9c0-0.5,0.3-1.1,0.8-1.8c0.5-0.7,1-1,1.6-1c0.4,0,0.7,0.1,0.9,0.3
		c0.2,0.2,0.4,0.6,0.4,1c0,0.5-0.2,1.1-0.7,1.7C226.6,13,226,13.4,225.4,13.4z"/>
	<path class="st0" d="M238.6,21.6v1.2c-1.3,0.8-2.3,1.2-3,1.2c-0.4,0-0.8-0.1-1.3-0.2c-1.1,1.4-2,2.4-2.8,3.1c-0.8,0.6-1.6,1-2.4,1
		c-0.9,0-1.6-0.5-2.1-1.4c-0.5-1-0.7-2.2-0.7-3.6c0-1.9,0.6-4,1.8-6.3c1.2-2.3,2.6-4.4,4.2-6.4c1.7-2,3.3-3.6,4.8-4.9s2.6-2,3.1-2
		c0.5,0,0.8,0.4,0.8,1.1c0,3.2-4.1,8.8-12.3,16.7c0,0.2,0,0.7,0,1.3c0,1.7,0.5,2.5,1.4,2.5c0.4,0,0.7-0.1,1.1-0.4
		c0.4-0.3,0.9-0.8,1.7-1.6c-0.3-0.7-0.4-1.1-0.4-1.5c0-0.7,0.3-1.4,0.8-2.2c0.5-0.8,1.2-1.5,1.9-2c0.7-0.6,1.2-0.9,1.5-0.9
		c0.5,0,0.7,0.4,0.7,1.1c0,0.5-0.1,1.2-0.4,2c-0.3,0.8-0.7,1.6-1.3,2.6c0.2,0.2,0.4,0.3,0.5,0.4c0.1,0.1,0.3,0.1,0.5,0.1
		C237.2,22.3,237.9,22.1,238.6,21.6z M229.3,18.8c0.6-0.5,1.3-1.2,1.9-1.9c0.6-0.7,1.6-1.9,2.8-3.4c1.2-1.5,2.1-2.7,2.8-3.7
		c0.7-1,1.2-1.8,1.5-2.5c0.3-0.7,0.5-1.1,0.5-1.4c0-0.2,0-0.3-0.1-0.3c-0.3,0-0.8,0.4-1.7,1.3c-0.8,0.9-1.8,2.1-2.9,3.6
		c-1.5,2.1-2.6,3.7-3.3,4.8C230.2,16.4,229.7,17.6,229.3,18.8z"/>
</g>
</svg>
